<!DOCTYPE svg PUBLIC "-//W3C//DTD SVG 1.1//EN" "http://www.w3.org/Graphics/SVG/1.1/DTD/svg11.dtd">
<!-- Uploaded to: SVG Repo, www.svgrepo.com, Transformed by: SVG Repo Mixer Tools -->
<svg fill="#1899D2" width="233px" height="233px" viewBox="0 0 24 24" xmlns="http://www.w3.org/2000/svg" data-darkreader-inline-fill="" style="--darkreader-inline-fill: var(--darkreader-background-000000, #000000);" transform="matrix(-1, 0, 0, 1, 0, 0)rotate(0)">
<g id="SVGRepo_bgCarrier" stroke-width="0"/>
<g id="SVGRepo_tracerCarrier" stroke-linecap="round" stroke-linejoin="round" stroke="#CCCCCC" stroke-width="0.192"/>
<g id="SVGRepo_iconCarrier">
<path d="M5,7A1,1,0,0,0,4,8V22a1,1,0,0,0,1,1H19a1,1,0,0,0,1-1V8a1,1,0,0,0-1-1H13V4.723a2,2,0,1,0-2,0V7ZM18,9V21H6V9ZM7,13a1,1,0,0,1,1-1h2a1,1,0,0,1,0,2H8A1,1,0,0,1,7,13Zm6,0a1,1,0,0,1,1-1h2a1,1,0,0,1,0,2H14A1,1,0,0,1,13,13ZM1,14V12a1,1,0,0,1,2,0v2a1,1,0,0,1-2,0Zm22-2v2a1,1,0,0,1-2,0V12a1,1,0,0,1,2,0ZM7,18a1,1,0,0,1,1-1h8a1,1,0,0,1,0,2H8A1,1,0,0,1,7,18Z"/>
</g>
</svg>